<?xml version="1.0" encoding="UTF-8" standalone="no"?>
<!DOCTYPE svg PUBLIC "-//W3C//DTD SVG 1.1//EN"
 "http://www.w3.org/Graphics/SVG/1.1/DTD/svg11.dtd">
<!-- Generated by graphviz version 2.38.0 (20140413.2041)
 -->
<!-- Title: controllers_diagram Pages: 1 -->
<svg width="932pt" height="883pt"
 viewBox="0.00 0.00 931.51 883.00" xmlns="http://www.w3.org/2000/svg" xmlns:xlink="http://www.w3.org/1999/xlink">
<g id="graph0" class="graph" transform="scale(1 1) rotate(0) translate(360.688 564.5)">
<title>controllers_diagram</title>
<polygon fill="white" stroke="none" points="-360.688,318.5 -360.688,-564.5 570.817,-564.5 570.817,318.5 -360.688,318.5"/>
<!-- _diagram_info -->
<g id="node1" class="node"><title>_diagram_info</title>
<text text-anchor="start" x="-348.688" y="-416.1" font-family="Times,serif" font-size="13.00">Controllers diagram</text>
<text text-anchor="start" x="-348.688" y="-403.1" font-family="Times,serif" font-size="13.00">Date: Jan 12 2015 &#45; 16:32</text>
<text text-anchor="start" x="-348.688" y="-390.1" font-family="Times,serif" font-size="13.00">Migration version: 20141209161827</text>
<text text-anchor="start" x="-348.688" y="-377.1" font-family="Times,serif" font-size="13.00">Generated by RailRoady 1.2.0</text>
<text text-anchor="start" x="-348.688" y="-364.1" font-family="Times,serif" font-size="13.00">http://railroady.prestonlee.com</text>
</g>
<!-- ApplicationController -->
<g id="node2" class="node"><title>ApplicationController</title>
<path fill="none" stroke="black" d="M242.683,272C242.683,272 421.317,272 421.317,272 427.317,272 433.317,266 433.317,260 433.317,260 433.317,194 433.317,194 433.317,188 427.317,182 421.317,182 421.317,182 242.683,182 242.683,182 236.683,182 230.683,188 230.683,194 230.683,194 230.683,260 230.683,260 230.683,266 236.683,272 242.683,272"/>
<text text-anchor="middle" x="332" y="197.2" font-family="Times,serif" font-size="14.00">ApplicationController</text>
<polyline fill="none" stroke="black" points="230.683,204 433.317,204 "/>
<text text-anchor="start" x="238.683" y="219.2" font-family="Times,serif" font-size="14.00">_one_time_conditions_valid_90?</text>
<polyline fill="none" stroke="black" points="230.683,226 433.317,226 "/>
<polyline fill="none" stroke="black" points="230.683,250 433.317,250 "/>
<text text-anchor="start" x="238.683" y="265.2" font-family="Times,serif" font-size="14.00">_layout</text>
</g>
<!-- CommentsController -->
<g id="node3" class="node"><title>CommentsController</title>
<path fill="none" stroke="black" d="M-282.317,293C-282.317,293 -103.683,293 -103.683,293 -97.6826,293 -91.6826,287 -91.6826,281 -91.6826,281 -91.6826,159 -91.6826,159 -91.6826,153 -97.6826,147 -103.683,147 -103.683,147 -282.317,147 -282.317,147 -288.317,147 -294.317,153 -294.317,159 -294.317,159 -294.317,281 -294.317,281 -294.317,287 -288.317,293 -282.317,293"/>
<text text-anchor="middle" x="-193" y="162.2" font-family="Times,serif" font-size="14.00">CommentsController</text>
<polyline fill="none" stroke="black" points="-294.317,169 -91.6826,169 "/>
<text text-anchor="start" x="-286.317" y="184.2" font-family="Times,serif" font-size="14.00">_one_time_conditions_valid_94?</text>
<text text-anchor="start" x="-286.317" y="198.2" font-family="Times,serif" font-size="14.00">create</text>
<text text-anchor="start" x="-286.317" y="212.2" font-family="Times,serif" font-size="14.00">index</text>
<text text-anchor="start" x="-286.317" y="226.2" font-family="Times,serif" font-size="14.00">new</text>
<polyline fill="none" stroke="black" points="-294.317,233 -91.6826,233 "/>
<polyline fill="none" stroke="black" points="-294.317,257 -91.6826,257 "/>
<text text-anchor="start" x="-286.317" y="272.2" font-family="Times,serif" font-size="14.00">_layout</text>
<text text-anchor="start" x="-286.317" y="286.2" font-family="Times,serif" font-size="14.00">load_commentable</text>
</g>
<!-- JournalistsController -->
<g id="node4" class="node"><title>JournalistsController</title>
<path fill="none" stroke="black" d="M159.183,146C159.183,146 344.817,146 344.817,146 350.817,146 356.817,140 356.817,134 356.817,134 356.817,-44 356.817,-44 356.817,-50 350.817,-56 344.817,-56 344.817,-56 159.183,-56 159.183,-56 153.183,-56 147.183,-50 147.183,-44 147.183,-44 147.183,134 147.183,134 147.183,140 153.183,146 159.183,146"/>
<text text-anchor="middle" x="252" y="-40.8" font-family="Times,serif" font-size="14.00">JournalistsController</text>
<polyline fill="none" stroke="black" points="147.183,-34 356.817,-34 "/>
<text text-anchor="start" x="155.183" y="-18.8" font-family="Times,serif" font-size="14.00">_one_time_conditions_valid_168?</text>
<text text-anchor="start" x="155.183" y="-4.8" font-family="Times,serif" font-size="14.00">create</text>
<text text-anchor="start" x="155.183" y="9.2" font-family="Times,serif" font-size="14.00">destroy</text>
<text text-anchor="start" x="155.183" y="23.2" font-family="Times,serif" font-size="14.00">edit</text>
<text text-anchor="start" x="155.183" y="37.2" font-family="Times,serif" font-size="14.00">index</text>
<text text-anchor="start" x="155.183" y="51.2" font-family="Times,serif" font-size="14.00">new</text>
<text text-anchor="start" x="155.183" y="65.2" font-family="Times,serif" font-size="14.00">show</text>
<text text-anchor="start" x="155.183" y="79.2" font-family="Times,serif" font-size="14.00">update</text>
<polyline fill="none" stroke="black" points="147.183,86 356.817,86 "/>
<polyline fill="none" stroke="black" points="147.183,110 356.817,110 "/>
<text text-anchor="start" x="155.183" y="125.2" font-family="Times,serif" font-size="14.00">_layout</text>
<text text-anchor="start" x="155.183" y="139.2" font-family="Times,serif" font-size="14.00">set_journalist</text>
</g>
<!-- MediaListsController -->
<g id="node5" class="node"><title>MediaListsController</title>
<path fill="none" stroke="black" d="M159.183,-106C159.183,-106 344.817,-106 344.817,-106 350.817,-106 356.817,-112 356.817,-118 356.817,-118 356.817,-296 356.817,-296 356.817,-302 350.817,-308 344.817,-308 344.817,-308 159.183,-308 159.183,-308 153.183,-308 147.183,-302 147.183,-296 147.183,-296 147.183,-118 147.183,-118 147.183,-112 153.183,-106 159.183,-106"/>
<text text-anchor="middle" x="252" y="-292.8" font-family="Times,serif" font-size="14.00">MediaListsController</text>
<polyline fill="none" stroke="black" points="147.183,-286 356.817,-286 "/>
<text text-anchor="start" x="155.183" y="-270.8" font-family="Times,serif" font-size="14.00">_one_time_conditions_valid_188?</text>
<text text-anchor="start" x="155.183" y="-256.8" font-family="Times,serif" font-size="14.00">create</text>
<text text-anchor="start" x="155.183" y="-242.8" font-family="Times,serif" font-size="14.00">destroy</text>
<text text-anchor="start" x="155.183" y="-228.8" font-family="Times,serif" font-size="14.00">edit</text>
<text text-anchor="start" x="155.183" y="-214.8" font-family="Times,serif" font-size="14.00">index</text>
<text text-anchor="start" x="155.183" y="-200.8" font-family="Times,serif" font-size="14.00">new</text>
<text text-anchor="start" x="155.183" y="-186.8" font-family="Times,serif" font-size="14.00">show</text>
<text text-anchor="start" x="155.183" y="-172.8" font-family="Times,serif" font-size="14.00">update</text>
<polyline fill="none" stroke="black" points="147.183,-166 356.817,-166 "/>
<polyline fill="none" stroke="black" points="147.183,-142 356.817,-142 "/>
<text text-anchor="start" x="155.183" y="-126.8" font-family="Times,serif" font-size="14.00">_layout</text>
<text text-anchor="start" x="155.183" y="-112.8" font-family="Times,serif" font-size="14.00">set_media_list</text>
</g>
<!-- OmniauthCallbacksController -->
<g id="node6" class="node"><title>OmniauthCallbacksController</title>
<path fill="none" stroke="black" d="M11.6274,314C11.6274,314 172.373,314 172.373,314 178.373,314 184.373,308 184.373,302 184.373,302 184.373,208 184.373,208 184.373,202 178.373,196 172.373,196 172.373,196 11.6274,196 11.6274,196 5.62744,196 -0.372559,202 -0.372559,208 -0.372559,208 -0.372559,302 -0.372559,302 -0.372559,308 5.62744,314 11.6274,314"/>
<text text-anchor="middle" x="92" y="211.2" font-family="Times,serif" font-size="14.00">OmniauthCallbacksController</text>
<polyline fill="none" stroke="black" points="-0.372559,218 184.373,218 "/>
<text text-anchor="start" x="7.62744" y="233.2" font-family="Times,serif" font-size="14.00">google_oauth2</text>
<text text-anchor="start" x="7.62744" y="247.2" font-family="Times,serif" font-size="14.00">handle_callback</text>
<text text-anchor="start" x="7.62744" y="261.2" font-family="Times,serif" font-size="14.00">twitter</text>
<polyline fill="none" stroke="black" points="-0.372559,268 184.373,268 "/>
<polyline fill="none" stroke="black" points="-0.372559,292 184.373,292 "/>
<text text-anchor="start" x="7.62744" y="307.2" font-family="Times,serif" font-size="14.00">_layout</text>
</g>
<!-- PositionsController -->
<g id="node7" class="node"><title>PositionsController</title>
<path fill="none" stroke="black" d="M-92.8174,-148C-92.8174,-148 92.8174,-148 92.8174,-148 98.8174,-148 104.817,-154 104.817,-160 104.817,-160 104.817,-338 104.817,-338 104.817,-344 98.8174,-350 92.8174,-350 92.8174,-350 -92.8174,-350 -92.8174,-350 -98.8174,-350 -104.817,-344 -104.817,-338 -104.817,-338 -104.817,-160 -104.817,-160 -104.817,-154 -98.8174,-148 -92.8174,-148"/>
<text text-anchor="middle" x="0" y="-334.8" font-family="Times,serif" font-size="14.00">PositionsController</text>
<polyline fill="none" stroke="black" points="-104.817,-328 104.817,-328 "/>
<text text-anchor="start" x="-96.8174" y="-312.8" font-family="Times,serif" font-size="14.00">_one_time_conditions_valid_200?</text>
<text text-anchor="start" x="-96.8174" y="-298.8" font-family="Times,serif" font-size="14.00">create</text>
<text text-anchor="start" x="-96.8174" y="-284.8" font-family="Times,serif" font-size="14.00">destroy</text>
<text text-anchor="start" x="-96.8174" y="-270.8" font-family="Times,serif" font-size="14.00">edit</text>
<text text-anchor="start" x="-96.8174" y="-256.8" font-family="Times,serif" font-size="14.00">index</text>
<text text-anchor="start" x="-96.8174" y="-242.8" font-family="Times,serif" font-size="14.00">new</text>
<text text-anchor="start" x="-96.8174" y="-228.8" font-family="Times,serif" font-size="14.00">show</text>
<text text-anchor="start" x="-96.8174" y="-214.8" font-family="Times,serif" font-size="14.00">update</text>
<polyline fill="none" stroke="black" points="-104.817,-208 104.817,-208 "/>
<polyline fill="none" stroke="black" points="-104.817,-184 104.817,-184 "/>
<text text-anchor="start" x="-96.8174" y="-168.8" font-family="Times,serif" font-size="14.00">_layout</text>
<text text-anchor="start" x="-96.8174" y="-154.8" font-family="Times,serif" font-size="14.00">set_position</text>
</g>
<!-- PublishersController -->
<g id="node8" class="node"><title>PublishersController</title>
<path fill="none" stroke="black" d="M369.183,-358C369.183,-358 554.817,-358 554.817,-358 560.817,-358 566.817,-364 566.817,-370 566.817,-370 566.817,-548 566.817,-548 566.817,-554 560.817,-560 554.817,-560 554.817,-560 369.183,-560 369.183,-560 363.183,-560 357.183,-554 357.183,-548 357.183,-548 357.183,-370 357.183,-370 357.183,-364 363.183,-358 369.183,-358"/>
<text text-anchor="middle" x="462" y="-544.8" font-family="Times,serif" font-size="14.00">PublishersController</text>
<polyline fill="none" stroke="black" points="357.183,-538 566.817,-538 "/>
<text text-anchor="start" x="365.183" y="-522.8" font-family="Times,serif" font-size="14.00">_one_time_conditions_valid_240?</text>
<text text-anchor="start" x="365.183" y="-508.8" font-family="Times,serif" font-size="14.00">create</text>
<text text-anchor="start" x="365.183" y="-494.8" font-family="Times,serif" font-size="14.00">destroy</text>
<text text-anchor="start" x="365.183" y="-480.8" font-family="Times,serif" font-size="14.00">edit</text>
<text text-anchor="start" x="365.183" y="-466.8" font-family="Times,serif" font-size="14.00">index</text>
<text text-anchor="start" x="365.183" y="-452.8" font-family="Times,serif" font-size="14.00">new</text>
<text text-anchor="start" x="365.183" y="-438.8" font-family="Times,serif" font-size="14.00">show</text>
<text text-anchor="start" x="365.183" y="-424.8" font-family="Times,serif" font-size="14.00">update</text>
<polyline fill="none" stroke="black" points="357.183,-418 566.817,-418 "/>
<polyline fill="none" stroke="black" points="357.183,-394 566.817,-394 "/>
<text text-anchor="start" x="365.183" y="-378.8" font-family="Times,serif" font-size="14.00">_layout</text>
<text text-anchor="start" x="365.183" y="-364.8" font-family="Times,serif" font-size="14.00">set_publisher</text>
</g>
<!-- StoriesController -->
<g id="node9" class="node"><title>StoriesController</title>
<path fill="none" stroke="black" d="M-92.8174,104C-92.8174,104 92.8174,104 92.8174,104 98.8174,104 104.817,98 104.817,92 104.817,92 104.817,-86 104.817,-86 104.817,-92 98.8174,-98 92.8174,-98 92.8174,-98 -92.8174,-98 -92.8174,-98 -98.8174,-98 -104.817,-92 -104.817,-86 -104.817,-86 -104.817,92 -104.817,92 -104.817,98 -98.8174,104 -92.8174,104"/>
<text text-anchor="middle" x="0" y="-82.8" font-family="Times,serif" font-size="14.00">StoriesController</text>
<polyline fill="none" stroke="black" points="-104.817,-76 104.817,-76 "/>
<text text-anchor="start" x="-96.8174" y="-60.8" font-family="Times,serif" font-size="14.00">_one_time_conditions_valid_262?</text>
<text text-anchor="start" x="-96.8174" y="-46.8" font-family="Times,serif" font-size="14.00">create</text>
<text text-anchor="start" x="-96.8174" y="-32.8" font-family="Times,serif" font-size="14.00">destroy</text>
<text text-anchor="start" x="-96.8174" y="-18.8" font-family="Times,serif" font-size="14.00">edit</text>
<text text-anchor="start" x="-96.8174" y="-4.8" font-family="Times,serif" font-size="14.00">index</text>
<text text-anchor="start" x="-96.8174" y="9.2" font-family="Times,serif" font-size="14.00">new</text>
<text text-anchor="start" x="-96.8174" y="23.2" font-family="Times,serif" font-size="14.00">show</text>
<text text-anchor="start" x="-96.8174" y="37.2" font-family="Times,serif" font-size="14.00">update</text>
<polyline fill="none" stroke="black" points="-104.817,44 104.817,44 "/>
<polyline fill="none" stroke="black" points="-104.817,68 104.817,68 "/>
<text text-anchor="start" x="-96.8174" y="83.2" font-family="Times,serif" font-size="14.00">_layout</text>
<text text-anchor="start" x="-96.8174" y="97.2" font-family="Times,serif" font-size="14.00">set_story</text>
</g>
<!-- WelcomeController -->
<g id="node10" class="node"><title>WelcomeController</title>
<path fill="none" stroke="black" d="M-261.033,-232C-261.033,-232 -158.967,-232 -158.967,-232 -152.967,-232 -146.967,-238 -146.967,-244 -146.967,-244 -146.967,-310 -146.967,-310 -146.967,-316 -152.967,-322 -158.967,-322 -158.967,-322 -261.033,-322 -261.033,-322 -267.033,-322 -273.033,-316 -273.033,-310 -273.033,-310 -273.033,-244 -273.033,-244 -273.033,-238 -267.033,-232 -261.033,-232"/>
<text text-anchor="middle" x="-210" y="-306.8" font-family="Times,serif" font-size="14.00">WelcomeController</text>
<polyline fill="none" stroke="black" points="-273.033,-300 -146.967,-300 "/>
<text text-anchor="start" x="-265.033" y="-284.8" font-family="Times,serif" font-size="14.00">index</text>
<polyline fill="none" stroke="black" points="-273.033,-278 -146.967,-278 "/>
<polyline fill="none" stroke="black" points="-273.033,-254 -146.967,-254 "/>
<text text-anchor="start" x="-265.033" y="-238.8" font-family="Times,serif" font-size="14.00">_layout</text>
</g>
</g>
</svg>
