<?xml version="1.0" encoding="UTF-8" standalone="no"?>
<!DOCTYPE svg PUBLIC "-//W3C//DTD SVG 1.1//EN"
 "http://www.w3.org/Graphics/SVG/1.1/DTD/svg11.dtd">
<!-- Generated by graphviz version 2.38.0 (20140413.2041)
 -->
<!-- Title: models_diagram Pages: 1 -->
<svg width="677pt" height="814pt"
 viewBox="0.00 0.00 677.43 814.00" xmlns="http://www.w3.org/2000/svg" xmlns:xlink="http://www.w3.org/1999/xlink">
<g id="graph0" class="graph" transform="scale(1 1) rotate(0) translate(4 810)">
<title>models_diagram</title>
<polygon fill="white" stroke="none" points="-4,4 -4,-810 673.429,-810 673.429,4 -4,4"/>
<!-- _diagram_info -->
<g id="node1" class="node"><title>_diagram_info</title>
<text text-anchor="start" x="8.23548" y="-770.6" font-family="Times,serif" font-size="13.00">Models diagram</text>
<text text-anchor="start" x="8.23548" y="-757.6" font-family="Times,serif" font-size="13.00">Date: Jan 12 2015 &#45; 16:31</text>
<text text-anchor="start" x="8.23548" y="-744.6" font-family="Times,serif" font-size="13.00">Migration version: 20141209161827</text>
<text text-anchor="start" x="8.23548" y="-731.6" font-family="Times,serif" font-size="13.00">Generated by RailRoady 1.2.0</text>
<text text-anchor="start" x="8.23548" y="-718.6" font-family="Times,serif" font-size="13.00">http://railroady.prestonlee.com</text>
</g>
<!-- Comment -->
<g id="node2" class="node"><title>Comment</title>
<path fill="none" stroke="black" d="M183.025,-0.5C183.025,-0.5 320.822,-0.5 320.822,-0.5 326.822,-0.5 332.822,-6.5 332.822,-12.5 332.822,-12.5 332.822,-116.5 332.822,-116.5 332.822,-122.5 326.822,-128.5 320.822,-128.5 320.822,-128.5 183.025,-128.5 183.025,-128.5 177.025,-128.5 171.025,-122.5 171.025,-116.5 171.025,-116.5 171.025,-12.5 171.025,-12.5 171.025,-6.5 177.025,-0.5 183.025,-0.5"/>
<text text-anchor="middle" x="251.923" y="-113.3" font-family="Times,serif" font-size="14.00">Comment</text>
<polyline fill="none" stroke="black" points="171.025,-106.5 332.822,-106.5 "/>
<text text-anchor="start" x="179.025" y="-91.3" font-family="Times,serif" font-size="14.00">id :integer</text>
<text text-anchor="start" x="179.025" y="-77.3" font-family="Times,serif" font-size="14.00">content :text</text>
<text text-anchor="start" x="179.025" y="-63.3" font-family="Times,serif" font-size="14.00">commentable_id :integer</text>
<text text-anchor="start" x="179.025" y="-49.3" font-family="Times,serif" font-size="14.00">commentable_type :string</text>
<text text-anchor="start" x="179.025" y="-35.3" font-family="Times,serif" font-size="14.00">created_at :datetime</text>
<text text-anchor="start" x="179.025" y="-21.3" font-family="Times,serif" font-size="14.00">updated_at :datetime</text>
<text text-anchor="start" x="179.025" y="-7.3" font-family="Times,serif" font-size="14.00">user_id :integer</text>
</g>
<!-- Journalist -->
<g id="node3" class="node"><title>Journalist</title>
<path fill="none" stroke="black" d="M237.418,-691.5C237.418,-691.5 346.429,-691.5 346.429,-691.5 352.429,-691.5 358.429,-697.5 358.429,-703.5 358.429,-703.5 358.429,-793.5 358.429,-793.5 358.429,-799.5 352.429,-805.5 346.429,-805.5 346.429,-805.5 237.418,-805.5 237.418,-805.5 231.418,-805.5 225.418,-799.5 225.418,-793.5 225.418,-793.5 225.418,-703.5 225.418,-703.5 225.418,-697.5 231.418,-691.5 237.418,-691.5"/>
<text text-anchor="middle" x="291.923" y="-790.3" font-family="Times,serif" font-size="14.00">Journalist</text>
<polyline fill="none" stroke="black" points="225.418,-783.5 358.429,-783.5 "/>
<text text-anchor="start" x="233.418" y="-768.3" font-family="Times,serif" font-size="14.00">id :integer</text>
<text text-anchor="start" x="233.418" y="-754.3" font-family="Times,serif" font-size="14.00">first_name :string</text>
<text text-anchor="start" x="233.418" y="-740.3" font-family="Times,serif" font-size="14.00">last_name :string</text>
<text text-anchor="start" x="233.418" y="-726.3" font-family="Times,serif" font-size="14.00">created_at :datetime</text>
<text text-anchor="start" x="233.418" y="-712.3" font-family="Times,serif" font-size="14.00">updated_at :datetime</text>
<text text-anchor="start" x="233.418" y="-698.3" font-family="Times,serif" font-size="14.00">twitter :string</text>
</g>
<!-- Journalist&#45;&gt;Comment -->
<g id="edge6" class="edge"><title>Journalist&#45;&gt;Comment</title>
<path fill="none" stroke="#c68c79" d="M217.975,-691.498C217.625,-691.33 217.274,-691.164 216.923,-691 153.258,-661.211 110.193,-707.022 62.9232,-655 -33.2836,-549.121 29.5003,-478.739 19.9232,-336 14.8355,-260.17 -21.9058,-228.453 19.9232,-165 51.1862,-117.575 110.261,-92.6668 160.972,-79.6318"/>
<ellipse fill="none" stroke="#c68c79" cx="221.756" cy="-693.437" rx="4.00002" ry="4.00002"/>
<polygon fill="#c68c79" stroke="#c68c79" points="161.279,-79.5569 172.062,-81.551 166.136,-78.3684 170.992,-77.18 170.992,-77.18 170.992,-77.18 166.136,-78.3684 169.923,-72.8089 161.279,-79.5569 161.279,-79.5569"/>
</g>
<!-- MediaList -->
<g id="node4" class="node"><title>MediaList</title>
<path fill="none" stroke="black" d="M353.683,-193.5C353.683,-193.5 468.163,-193.5 468.163,-193.5 474.163,-193.5 480.163,-199.5 480.163,-205.5 480.163,-205.5 480.163,-295.5 480.163,-295.5 480.163,-301.5 474.163,-307.5 468.163,-307.5 468.163,-307.5 353.683,-307.5 353.683,-307.5 347.683,-307.5 341.683,-301.5 341.683,-295.5 341.683,-295.5 341.683,-205.5 341.683,-205.5 341.683,-199.5 347.683,-193.5 353.683,-193.5"/>
<text text-anchor="middle" x="410.923" y="-292.3" font-family="Times,serif" font-size="14.00">MediaList</text>
<polyline fill="none" stroke="black" points="341.683,-285.5 480.163,-285.5 "/>
<text text-anchor="start" x="349.683" y="-270.3" font-family="Times,serif" font-size="14.00">id :integer</text>
<text text-anchor="start" x="349.683" y="-256.3" font-family="Times,serif" font-size="14.00">name :string</text>
<text text-anchor="start" x="349.683" y="-242.3" font-family="Times,serif" font-size="14.00">user_id :integer</text>
<text text-anchor="start" x="349.683" y="-228.3" font-family="Times,serif" font-size="14.00">journalist_ids :integer</text>
<text text-anchor="start" x="349.683" y="-214.3" font-family="Times,serif" font-size="14.00">created_at :datetime</text>
<text text-anchor="start" x="349.683" y="-200.3" font-family="Times,serif" font-size="14.00">updated_at :datetime</text>
</g>
<!-- Journalist&#45;&gt;MediaList -->
<g id="edge1" class="edge"><title>Journalist&#45;&gt;MediaList</title>
<path fill="none" stroke="#8b17c2" d="M302.668,-683.041C322.656,-588.516 364.703,-413.196 390.273,-317.694"/>
<ellipse fill="none" stroke="#8b17c2" cx="301.801" cy="-687.171" rx="4.00001" ry="4.00001"/>
<polygon fill="#8b17c2" stroke="#8b17c2" points="390.32,-317.517 397.269,-309.033 391.622,-312.689 392.924,-307.862 392.924,-307.862 392.924,-307.862 391.622,-312.689 388.579,-306.69 390.32,-317.517 390.32,-317.517"/>
</g>
<!-- Position -->
<g id="node5" class="node"><title>Position</title>
<path fill="none" stroke="black" d="M41.4076,-193.5C41.4076,-193.5 150.439,-193.5 150.439,-193.5 156.439,-193.5 162.439,-199.5 162.439,-205.5 162.439,-205.5 162.439,-295.5 162.439,-295.5 162.439,-301.5 156.439,-307.5 150.439,-307.5 150.439,-307.5 41.4076,-307.5 41.4076,-307.5 35.4076,-307.5 29.4076,-301.5 29.4076,-295.5 29.4076,-295.5 29.4076,-205.5 29.4076,-205.5 29.4076,-199.5 35.4076,-193.5 41.4076,-193.5"/>
<text text-anchor="middle" x="95.9232" y="-292.3" font-family="Times,serif" font-size="14.00">Position</text>
<polyline fill="none" stroke="black" points="29.4076,-285.5 162.439,-285.5 "/>
<text text-anchor="start" x="37.4076" y="-270.3" font-family="Times,serif" font-size="14.00">id :integer</text>
<text text-anchor="start" x="37.4076" y="-256.3" font-family="Times,serif" font-size="14.00">title :string</text>
<text text-anchor="start" x="37.4076" y="-242.3" font-family="Times,serif" font-size="14.00">publisher_id :integer</text>
<text text-anchor="start" x="37.4076" y="-228.3" font-family="Times,serif" font-size="14.00">journalist_id :integer</text>
<text text-anchor="start" x="37.4076" y="-214.3" font-family="Times,serif" font-size="14.00">created_at :datetime</text>
<text text-anchor="start" x="37.4076" y="-200.3" font-family="Times,serif" font-size="14.00">updated_at :datetime</text>
</g>
<!-- Journalist&#45;&gt;Position -->
<g id="edge4" class="edge"><title>Journalist&#45;&gt;Position</title>
<path fill="none" stroke="#c3949c" d="M217.942,-691.563C217.602,-691.374 217.263,-691.186 216.923,-691 176.982,-669.066 148.025,-691.633 120.923,-655 47.9444,-556.356 62.9836,-404.259 79.8581,-317.723"/>
<ellipse fill="none" stroke="#c3949c" cx="221.625" cy="-693.708" rx="4.00002" ry="4.00002"/>
<polygon fill="#c3949c" stroke="#c3949c" points="79.8903,-317.563 86.2771,-308.649 80.878,-312.662 81.8657,-307.76 81.8657,-307.76 81.8657,-307.76 80.878,-312.662 77.4544,-306.871 79.8903,-317.563 79.8903,-317.563"/>
</g>
<!-- Publisher -->
<g id="node7" class="node"><title>Publisher</title>
<path fill="none" stroke="black" d="M142.418,-470.5C142.418,-470.5 251.429,-470.5 251.429,-470.5 257.429,-470.5 263.429,-476.5 263.429,-482.5 263.429,-482.5 263.429,-544.5 263.429,-544.5 263.429,-550.5 257.429,-556.5 251.429,-556.5 251.429,-556.5 142.418,-556.5 142.418,-556.5 136.418,-556.5 130.418,-550.5 130.418,-544.5 130.418,-544.5 130.418,-482.5 130.418,-482.5 130.418,-476.5 136.418,-470.5 142.418,-470.5"/>
<text text-anchor="middle" x="196.923" y="-541.3" font-family="Times,serif" font-size="14.00">Publisher</text>
<polyline fill="none" stroke="black" points="130.418,-534.5 263.429,-534.5 "/>
<text text-anchor="start" x="138.418" y="-519.3" font-family="Times,serif" font-size="14.00">id :integer</text>
<text text-anchor="start" x="138.418" y="-505.3" font-family="Times,serif" font-size="14.00">name :string</text>
<text text-anchor="start" x="138.418" y="-491.3" font-family="Times,serif" font-size="14.00">created_at :datetime</text>
<text text-anchor="start" x="138.418" y="-477.3" font-family="Times,serif" font-size="14.00">updated_at :datetime</text>
</g>
<!-- Journalist&#45;&gt;Publisher -->
<g id="edge5" class="edge"><title>Journalist&#45;&gt;Publisher</title>
<path fill="none" stroke="#629b3d" d="M265.193,-681.939C250.221,-645.219 231.821,-600.091 217.897,-565.941"/>
<polygon fill="#629b3d" stroke="#629b3d" points="265.272,-682.134 264.881,-693.093 267.16,-686.764 269.047,-691.394 269.047,-691.394 269.047,-691.394 267.16,-686.764 273.214,-689.695 265.272,-682.134 265.272,-682.134"/>
<polygon fill="#629b3d" stroke="#629b3d" points="217.871,-565.876 218.262,-554.918 215.983,-561.246 214.095,-556.617 214.095,-556.617 214.095,-556.617 215.983,-561.246 209.928,-558.316 217.871,-565.876 217.871,-565.876"/>
</g>
<!-- Story -->
<g id="node8" class="node"><title>Story</title>
<path fill="none" stroke="black" d="M192.356,-165.5C192.356,-165.5 311.491,-165.5 311.491,-165.5 317.491,-165.5 323.491,-171.5 323.491,-177.5 323.491,-177.5 323.491,-323.5 323.491,-323.5 323.491,-329.5 317.491,-335.5 311.491,-335.5 311.491,-335.5 192.356,-335.5 192.356,-335.5 186.356,-335.5 180.356,-329.5 180.356,-323.5 180.356,-323.5 180.356,-177.5 180.356,-177.5 180.356,-171.5 186.356,-165.5 192.356,-165.5"/>
<text text-anchor="middle" x="251.923" y="-320.3" font-family="Times,serif" font-size="14.00">Story</text>
<polyline fill="none" stroke="black" points="180.356,-313.5 323.491,-313.5 "/>
<text text-anchor="start" x="188.356" y="-298.3" font-family="Times,serif" font-size="14.00">id :integer</text>
<text text-anchor="start" x="188.356" y="-284.3" font-family="Times,serif" font-size="14.00">headline :text</text>
<text text-anchor="start" x="188.356" y="-270.3" font-family="Times,serif" font-size="14.00">summary :text</text>
<text text-anchor="start" x="188.356" y="-256.3" font-family="Times,serif" font-size="14.00">date_published :date</text>
<text text-anchor="start" x="188.356" y="-242.3" font-family="Times,serif" font-size="14.00">journalist_id :integer</text>
<text text-anchor="start" x="188.356" y="-228.3" font-family="Times,serif" font-size="14.00">created_at :datetime</text>
<text text-anchor="start" x="188.356" y="-214.3" font-family="Times,serif" font-size="14.00">updated_at :datetime</text>
<text text-anchor="start" x="188.356" y="-200.3" font-family="Times,serif" font-size="14.00">link :string</text>
<text text-anchor="start" x="188.356" y="-186.3" font-family="Times,serif" font-size="14.00">publisher_id :integer</text>
<text text-anchor="start" x="188.356" y="-172.3" font-family="Times,serif" font-size="14.00">published_at :datetime</text>
</g>
<!-- Journalist&#45;&gt;Story -->
<g id="edge3" class="edge"><title>Journalist&#45;&gt;Story</title>
<path fill="none" stroke="#f2f92f" d="M291.046,-682.913C289.474,-607.943 285.097,-480.683 272.923,-372 271.961,-363.414 270.775,-354.513 269.459,-345.614"/>
<ellipse fill="none" stroke="#f2f92f" cx="291.135" cy="-687.345" rx="4" ry="4"/>
<polygon fill="#f2f92f" stroke="#f2f92f" points="269.437,-345.47 272.373,-334.904 268.681,-340.527 267.924,-335.585 267.924,-335.585 267.924,-335.585 268.681,-340.527 263.476,-336.266 269.437,-345.47 269.437,-345.47"/>
</g>
<!-- User -->
<g id="node9" class="node"><title>User</title>
<path fill="none" stroke="black" d="M414.645,-372.5C414.645,-372.5 595.201,-372.5 595.201,-372.5 601.201,-372.5 607.201,-378.5 607.201,-384.5 607.201,-384.5 607.201,-642.5 607.201,-642.5 607.201,-648.5 601.201,-654.5 595.201,-654.5 595.201,-654.5 414.645,-654.5 414.645,-654.5 408.645,-654.5 402.645,-648.5 402.645,-642.5 402.645,-642.5 402.645,-384.5 402.645,-384.5 402.645,-378.5 408.645,-372.5 414.645,-372.5"/>
<text text-anchor="middle" x="504.923" y="-639.3" font-family="Times,serif" font-size="14.00">User</text>
<polyline fill="none" stroke="black" points="402.645,-632.5 607.201,-632.5 "/>
<text text-anchor="start" x="410.645" y="-617.3" font-family="Times,serif" font-size="14.00">id :integer</text>
<text text-anchor="start" x="410.645" y="-603.3" font-family="Times,serif" font-size="14.00">email :string</text>
<text text-anchor="start" x="410.645" y="-589.3" font-family="Times,serif" font-size="14.00">encrypted_password :string</text>
<text text-anchor="start" x="410.645" y="-575.3" font-family="Times,serif" font-size="14.00">reset_password_token :string</text>
<text text-anchor="start" x="410.645" y="-561.3" font-family="Times,serif" font-size="14.00">reset_password_sent_at :datetime</text>
<text text-anchor="start" x="410.645" y="-547.3" font-family="Times,serif" font-size="14.00">remember_created_at :datetime</text>
<text text-anchor="start" x="410.645" y="-533.3" font-family="Times,serif" font-size="14.00">sign_in_count :integer</text>
<text text-anchor="start" x="410.645" y="-519.3" font-family="Times,serif" font-size="14.00">current_sign_in_at :datetime</text>
<text text-anchor="start" x="410.645" y="-505.3" font-family="Times,serif" font-size="14.00">last_sign_in_at :datetime</text>
<text text-anchor="start" x="410.645" y="-491.3" font-family="Times,serif" font-size="14.00">current_sign_in_ip :string</text>
<text text-anchor="start" x="410.645" y="-477.3" font-family="Times,serif" font-size="14.00">last_sign_in_ip :string</text>
<text text-anchor="start" x="410.645" y="-463.3" font-family="Times,serif" font-size="14.00">first_name :string</text>
<text text-anchor="start" x="410.645" y="-449.3" font-family="Times,serif" font-size="14.00">last_name :string</text>
<text text-anchor="start" x="410.645" y="-435.3" font-family="Times,serif" font-size="14.00">username :string</text>
<text text-anchor="start" x="410.645" y="-421.3" font-family="Times,serif" font-size="14.00">created_at :datetime</text>
<text text-anchor="start" x="410.645" y="-407.3" font-family="Times,serif" font-size="14.00">updated_at :datetime</text>
<text text-anchor="start" x="410.645" y="-393.3" font-family="Times,serif" font-size="14.00">image :text</text>
<text text-anchor="start" x="410.645" y="-379.3" font-family="Times,serif" font-size="14.00">name :string</text>
</g>
<!-- Journalist&#45;&gt;User -->
<g id="edge2" class="edge"><title>Journalist&#45;&gt;User</title>
<path fill="none" stroke="#767e18" d="M353.093,-683.758C362.141,-674.169 371.313,-664.359 379.923,-655 385.13,-649.341 390.437,-643.533 395.782,-637.653"/>
<polygon fill="#767e18" stroke="#767e18" points="353.081,-683.771 342.94,-687.945 349.645,-687.404 346.21,-691.037 346.21,-691.037 346.21,-691.037 349.645,-687.404 349.479,-694.129 353.081,-683.771 353.081,-683.771"/>
<polygon fill="#767e18" stroke="#767e18" points="395.849,-637.579 405.9,-633.194 399.208,-633.875 402.567,-630.171 402.567,-630.171 402.567,-630.171 399.208,-633.875 399.233,-627.148 395.849,-637.579 395.849,-637.579"/>
</g>
<!-- MediaList&#45;&gt;Journalist -->
<g id="edge7" class="edge"><title>MediaList&#45;&gt;Journalist</title>
<path fill="none" stroke="#0d5891" d="M400.188,-315.915C380.206,-410.415 338.161,-585.736 312.585,-681.263"/>
<ellipse fill="none" stroke="#0d5891" cx="401.056" cy="-311.777" rx="4.00001" ry="4.00001"/>
<polygon fill="#0d5891" stroke="#0d5891" points="312.54,-681.43 305.592,-689.914 311.238,-686.258 309.937,-691.085 309.937,-691.085 309.937,-691.085 311.238,-686.258 314.282,-692.257 312.54,-681.43 312.54,-681.43"/>
</g>
<!-- Provider -->
<g id="node6" class="node"><title>Provider</title>
<path fill="none" stroke="black" d="M548.418,-193.5C548.418,-193.5 657.429,-193.5 657.429,-193.5 663.429,-193.5 669.429,-199.5 669.429,-205.5 669.429,-205.5 669.429,-295.5 669.429,-295.5 669.429,-301.5 663.429,-307.5 657.429,-307.5 657.429,-307.5 548.418,-307.5 548.418,-307.5 542.418,-307.5 536.418,-301.5 536.418,-295.5 536.418,-295.5 536.418,-205.5 536.418,-205.5 536.418,-199.5 542.418,-193.5 548.418,-193.5"/>
<text text-anchor="middle" x="602.923" y="-292.3" font-family="Times,serif" font-size="14.00">Provider</text>
<polyline fill="none" stroke="black" points="536.418,-285.5 669.429,-285.5 "/>
<text text-anchor="start" x="544.418" y="-270.3" font-family="Times,serif" font-size="14.00">id :integer</text>
<text text-anchor="start" x="544.418" y="-256.3" font-family="Times,serif" font-size="14.00">user_id :integer</text>
<text text-anchor="start" x="544.418" y="-242.3" font-family="Times,serif" font-size="14.00">provider :string</text>
<text text-anchor="start" x="544.418" y="-228.3" font-family="Times,serif" font-size="14.00">uid :string</text>
<text text-anchor="start" x="544.418" y="-214.3" font-family="Times,serif" font-size="14.00">created_at :datetime</text>
<text text-anchor="start" x="544.418" y="-200.3" font-family="Times,serif" font-size="14.00">updated_at :datetime</text>
</g>
<!-- Publisher&#45;&gt;Position -->
<g id="edge9" class="edge"><title>Publisher&#45;&gt;Position</title>
<path fill="none" stroke="#6fc6d9" d="M177.696,-462.813C161.717,-421.523 138.851,-362.433 121.359,-317.231"/>
<ellipse fill="none" stroke="#6fc6d9" cx="179.14" cy="-466.545" rx="4.00001" ry="4.00001"/>
<polygon fill="#6fc6d9" stroke="#6fc6d9" points="121.322,-317.134 121.91,-306.184 119.517,-312.471 117.713,-307.808 117.713,-307.808 117.713,-307.808 119.517,-312.471 113.516,-309.432 121.322,-317.134 121.322,-317.134"/>
</g>
<!-- Publisher&#45;&gt;Story -->
<g id="edge8" class="edge"><title>Publisher&#45;&gt;Story</title>
<path fill="none" stroke="#ad0e09" d="M207.486,-462.377C214.451,-429.321 223.792,-384.996 232.111,-345.516"/>
<ellipse fill="none" stroke="#ad0e09" cx="206.646" cy="-466.362" rx="4.00001" ry="4.00001"/>
<polygon fill="#ad0e09" stroke="#ad0e09" points="232.14,-345.378 238.606,-336.521 233.171,-340.485 234.203,-335.593 234.203,-335.593 234.203,-335.593 233.171,-340.485 229.799,-334.665 232.14,-345.378 232.14,-345.378"/>
</g>
<!-- Story&#45;&gt;Comment -->
<g id="edge10" class="edge"><title>Story&#45;&gt;Comment</title>
<path fill="none" stroke="#9918e1" d="M251.923,-157.217C251.923,-151.041 251.923,-144.866 251.923,-138.804"/>
<ellipse fill="none" stroke="#9918e1" cx="251.923" cy="-161.308" rx="4" ry="4"/>
<polygon fill="#9918e1" stroke="#9918e1" points="251.923,-138.729 256.423,-128.729 251.923,-133.729 251.923,-128.729 251.923,-128.729 251.923,-128.729 251.923,-133.729 247.423,-128.729 251.923,-138.729 251.923,-138.729"/>
</g>
<!-- User&#45;&gt;Comment -->
<g id="edge12" class="edge"><title>User&#45;&gt;Comment</title>
<path fill="none" stroke="#709cd5" d="M513.492,-364.043C515.106,-284.687 511.198,-196.893 488.923,-165 455.557,-117.225 394.564,-92.3004 342.811,-79.3448"/>
<ellipse fill="none" stroke="#709cd5" cx="513.397" cy="-368.188" rx="4" ry="4"/>
<polygon fill="#709cd5" stroke="#709cd5" points="342.656,-79.308 333.974,-72.6091 337.793,-78.1471 332.929,-76.9861 332.929,-76.9861 332.929,-76.9861 337.793,-78.1471 331.885,-81.3632 342.656,-79.308 342.656,-79.308"/>
</g>
<!-- User&#45;&gt;MediaList -->
<g id="edge11" class="edge"><title>User&#45;&gt;MediaList</title>
<path fill="none" stroke="#e75ec8" d="M451.678,-364.66C445.692,-348.04 439.844,-331.801 434.531,-317.049"/>
<ellipse fill="none" stroke="#e75ec8" cx="453.128" cy="-368.686" rx="4.00001" ry="4.00001"/>
<polygon fill="#e75ec8" stroke="#e75ec8" points="434.509,-316.988 435.354,-306.055 432.815,-312.284 431.121,-307.58 431.121,-307.58 431.121,-307.58 432.815,-312.284 426.887,-309.105 434.509,-316.988 434.509,-316.988"/>
</g>
<!-- User&#45;&gt;Provider -->
<g id="edge13" class="edge"><title>User&#45;&gt;Provider</title>
<path fill="none" stroke="#0f1659" d="M560.333,-364.928C566.603,-348.23 572.73,-331.912 578.295,-317.091"/>
<ellipse fill="none" stroke="#0f1659" cx="558.915" cy="-368.705" rx="4.00001" ry="4.00001"/>
<polygon fill="#0f1659" stroke="#0f1659" points="578.351,-316.942 586.079,-309.162 580.109,-312.261 581.866,-307.58 581.866,-307.58 581.866,-307.58 580.109,-312.261 577.654,-305.998 578.351,-316.942 578.351,-316.942"/>
</g>
</g>
</svg>
