<?xml version="1.0" encoding="UTF-8" standalone="no"?>
<!DOCTYPE svg PUBLIC "-//W3C//DTD SVG 1.1//EN"
 "http://www.w3.org/Graphics/SVG/1.1/DTD/svg11.dtd">
<!-- Generated by graphviz version 2.38.0 (20140413.2041)
 -->
<!-- Title: models_diagram Pages: 1 -->
<svg width="508pt" height="297pt"
 viewBox="0.00 0.00 508.25 297.00" xmlns="http://www.w3.org/2000/svg" xmlns:xlink="http://www.w3.org/1999/xlink">
<g id="graph0" class="graph" transform="scale(1 1) rotate(0) translate(4 293)">
<title>models_diagram</title>
<polygon fill="white" stroke="none" points="-4,4 -4,-293 504.25,-293 504.25,4 -4,4"/>
<!-- _diagram_info -->
<g id="node1" class="node"><title>_diagram_info</title>
<text text-anchor="start" x="8" y="-274.6" font-family="Times,serif" font-size="13.00">Models diagram</text>
<text text-anchor="start" x="8" y="-261.6" font-family="Times,serif" font-size="13.00">Date: Jan 12 2015 &#45; 16:32</text>
<text text-anchor="start" x="8" y="-248.6" font-family="Times,serif" font-size="13.00">Migration version: 20141209161827</text>
<text text-anchor="start" x="8" y="-235.6" font-family="Times,serif" font-size="13.00">Generated by RailRoady 1.2.0</text>
<text text-anchor="start" x="8" y="-222.6" font-family="Times,serif" font-size="13.00">http://railroady.prestonlee.com</text>
</g>
<!-- Comment -->
<g id="node2" class="node"><title>Comment</title>
<ellipse fill="none" stroke="black" cx="222.688" cy="-18" rx="44.9768" ry="18"/>
<text text-anchor="middle" x="222.688" y="-13.8" font-family="Times,serif" font-size="14.00">Comment</text>
</g>
<!-- Journalist -->
<g id="node3" class="node"><title>Journalist</title>
<ellipse fill="none" stroke="black" cx="269.688" cy="-252.5" rx="44.4923" ry="18"/>
<text text-anchor="middle" x="269.688" y="-248.3" font-family="Times,serif" font-size="14.00">Journalist</text>
</g>
<!-- Journalist&#45;&gt;Comment -->
<g id="edge6" class="edge"><title>Journalist&#45;&gt;Comment</title>
<path fill="none" stroke="#ddae2b" d="M242.075,-231.508C234.083,-226.137 225.211,-220.56 216.688,-216 179.79,-196.26 161.072,-207.679 129.688,-180 102.07,-155.643 98.1128,-143.598 88.6877,-108 84.5926,-92.5329 79.6921,-85.2317 88.6877,-72 106.743,-45.4425 140.383,-32.1926 169.439,-25.582"/>
<ellipse fill="none" stroke="#ddae2b" cx="245.834" cy="-234.085" rx="4.00002" ry="4.00002"/>
<polygon fill="#ddae2b" stroke="#ddae2b" points="169.698,-25.5286 180.4,-27.917 174.595,-24.5192 179.492,-23.5097 179.492,-23.5097 179.492,-23.5097 174.595,-24.5192 178.583,-19.1023 169.698,-25.5286 169.698,-25.5286"/>
</g>
<!-- MediaList -->
<g id="node4" class="node"><title>MediaList</title>
<ellipse fill="none" stroke="black" cx="316.688" cy="-90" rx="46.4132" ry="18"/>
<text text-anchor="middle" x="316.688" y="-85.8" font-family="Times,serif" font-size="14.00">MediaList</text>
</g>
<!-- Journalist&#45;&gt;MediaList -->
<g id="edge1" class="edge"><title>Journalist&#45;&gt;MediaList</title>
<path fill="none" stroke="#140f52" d="M272.044,-226.079C278.54,-196.418 292.807,-147.608 303.764,-117.494"/>
<ellipse fill="none" stroke="#140f52" cx="271.154" cy="-230.406" rx="4.00001" ry="4.00001"/>
<polygon fill="#140f52" stroke="#140f52" points="303.797,-117.406 311.545,-109.646 305.567,-112.729 307.336,-108.053 307.336,-108.053 307.336,-108.053 305.567,-112.729 303.128,-106.46 303.797,-117.406 303.797,-117.406"/>
</g>
<!-- Position -->
<g id="node5" class="node"><title>Position</title>
<ellipse fill="none" stroke="black" cx="136.688" cy="-90" rx="39.206" ry="18"/>
<text text-anchor="middle" x="136.688" y="-85.8" font-family="Times,serif" font-size="14.00">Position</text>
</g>
<!-- Journalist&#45;&gt;Position -->
<g id="edge4" class="edge"><title>Journalist&#45;&gt;Position</title>
<path fill="none" stroke="#eecf89" d="M241.646,-231.759C233.707,-226.434 224.97,-220.818 216.688,-216 185.763,-198.009 164.842,-209.56 144.688,-180 132.431,-162.022 131.203,-137.029 132.598,-118.104"/>
<ellipse fill="none" stroke="#eecf89" cx="245.368" cy="-234.287" rx="4.00002" ry="4.00002"/>
<polygon fill="#eecf89" stroke="#eecf89" points="132.611,-117.978 138.101,-108.486 133.118,-113.004 133.624,-108.03 133.624,-108.03 133.624,-108.03 133.118,-113.004 129.148,-107.574 132.611,-117.978 132.611,-117.978"/>
</g>
<!-- Publisher -->
<g id="node7" class="node"><title>Publisher</title>
<ellipse fill="none" stroke="black" cx="197.688" cy="-162" rx="43.5319" ry="18"/>
<text text-anchor="middle" x="197.688" y="-157.8" font-family="Times,serif" font-size="14.00">Publisher</text>
</g>
<!-- Journalist&#45;&gt;Publisher -->
<g id="edge5" class="edge"><title>Journalist&#45;&gt;Publisher</title>
<path fill="none" stroke="#78ef4e" d="M249.994,-227.293C239.942,-214.938 227.739,-199.938 217.649,-187.536"/>
<polygon fill="#78ef4e" stroke="#78ef4e" points="250.171,-227.511 252.991,-238.108 253.326,-231.389 256.482,-235.268 256.482,-235.268 256.482,-235.268 253.326,-231.389 259.973,-232.428 250.171,-227.511 250.171,-227.511"/>
<polygon fill="#78ef4e" stroke="#78ef4e" points="217.365,-187.186 214.544,-176.589 214.209,-183.308 211.054,-179.429 211.054,-179.429 211.054,-179.429 214.209,-183.308 207.563,-182.269 217.365,-187.186 217.365,-187.186"/>
</g>
<!-- Story -->
<g id="node8" class="node"><title>Story</title>
<ellipse fill="none" stroke="black" cx="222.688" cy="-90" rx="29.0429" ry="18"/>
<text text-anchor="middle" x="222.688" y="-85.8" font-family="Times,serif" font-size="14.00">Story</text>
</g>
<!-- Journalist&#45;&gt;Story -->
<g id="edge3" class="edge"><title>Journalist&#45;&gt;Story</title>
<path fill="none" stroke="#b72c41" d="M267.449,-226.113C264.971,-203.97 260.026,-171.221 250.688,-144 247.414,-134.458 242.605,-124.543 237.893,-115.906"/>
<ellipse fill="none" stroke="#b72c41" cx="267.893" cy="-230.354" rx="4" ry="4"/>
<polygon fill="#b72c41" stroke="#b72c41" points="237.836,-115.806 236.806,-104.889 235.365,-111.46 232.894,-107.113 232.894,-107.113 232.894,-107.113 235.365,-111.46 228.982,-109.337 237.836,-115.806 237.836,-115.806"/>
</g>
<!-- User -->
<g id="node9" class="node"><title>User</title>
<ellipse fill="none" stroke="black" cx="385.688" cy="-162" rx="27" ry="18"/>
<text text-anchor="middle" x="385.688" y="-157.8" font-family="Times,serif" font-size="14.00">User</text>
</g>
<!-- Journalist&#45;&gt;User -->
<g id="edge2" class="edge"><title>Journalist&#45;&gt;User</title>
<path fill="none" stroke="#7b04d1" d="M297.678,-230.146C316.873,-215.501 342.122,-196.238 360.651,-182.101"/>
<polygon fill="#7b04d1" stroke="#7b04d1" points="297.579,-230.221 286.899,-232.709 293.604,-233.253 289.629,-236.286 289.629,-236.286 289.629,-236.286 293.604,-233.253 292.358,-239.864 297.579,-230.221 297.579,-230.221"/>
<polygon fill="#7b04d1" stroke="#7b04d1" points="360.695,-182.068 371.375,-179.58 364.67,-179.035 368.646,-176.002 368.646,-176.002 368.646,-176.002 364.67,-179.035 365.916,-172.424 360.695,-182.068 360.695,-182.068"/>
</g>
<!-- MediaList&#45;&gt;Journalist -->
<g id="edge7" class="edge"><title>MediaList&#45;&gt;Journalist</title>
<path fill="none" stroke="#79b5e3" d="M314.353,-116.323C307.858,-146.018 293.539,-195.001 282.564,-225.138"/>
<ellipse fill="none" stroke="#79b5e3" cx="315.232" cy="-112.048" rx="4.00001" ry="4.00001"/>
<polygon fill="#79b5e3" stroke="#79b5e3" points="282.511,-225.276 274.76,-233.032 280.74,-229.952 278.968,-234.627 278.968,-234.627 278.968,-234.627 280.74,-229.952 283.176,-236.222 282.511,-225.276 282.511,-225.276"/>
</g>
<!-- Provider -->
<g id="node6" class="node"><title>Provider</title>
<ellipse fill="none" stroke="black" cx="459.688" cy="-90" rx="40.6248" ry="18"/>
<text text-anchor="middle" x="459.688" y="-85.8" font-family="Times,serif" font-size="14.00">Provider</text>
</g>
<!-- Publisher&#45;&gt;Position -->
<g id="edge9" class="edge"><title>Publisher&#45;&gt;Position</title>
<path fill="none" stroke="#e0dbfb" d="M178.205,-138.643C171.652,-131.123 164.316,-122.704 157.654,-115.06"/>
<ellipse fill="none" stroke="#e0dbfb" cx="180.912" cy="-141.749" rx="4.00002" ry="4.00002"/>
<polygon fill="#e0dbfb" stroke="#e0dbfb" points="157.329,-114.686 154.152,-104.191 154.044,-110.917 150.759,-107.147 150.759,-107.147 150.759,-107.147 154.044,-110.917 147.366,-110.104 157.329,-114.686 157.329,-114.686"/>
</g>
<!-- Publisher&#45;&gt;Story -->
<g id="edge8" class="edge"><title>Publisher&#45;&gt;Story</title>
<path fill="none" stroke="#854738" d="M206.463,-136.431C208.683,-130.214 211.076,-123.514 213.324,-117.22"/>
<ellipse fill="none" stroke="#854738" cx="205.085" cy="-140.288" rx="4.00001" ry="4.00001"/>
<polygon fill="#854738" stroke="#854738" points="213.328,-117.206 220.93,-109.303 215.01,-112.498 216.692,-107.789 216.692,-107.789 216.692,-107.789 215.01,-112.498 212.454,-106.275 213.328,-117.206 213.328,-117.206"/>
</g>
<!-- Story&#45;&gt;Comment -->
<g id="edge10" class="edge"><title>Story&#45;&gt;Comment</title>
<path fill="none" stroke="#49156d" d="M222.688,-63.6398C222.688,-58.0629 222.688,-52.1319 222.688,-46.4761"/>
<ellipse fill="none" stroke="#49156d" cx="222.688" cy="-67.6966" rx="4" ry="4"/>
<polygon fill="#49156d" stroke="#49156d" points="222.688,-46.1043 227.188,-36.1043 222.688,-41.1043 222.688,-36.1043 222.688,-36.1043 222.688,-36.1043 222.688,-41.1043 218.188,-36.1044 222.688,-46.1043 222.688,-46.1043"/>
</g>
<!-- User&#45;&gt;Comment -->
<g id="edge12" class="edge"><title>User&#45;&gt;Comment</title>
<path fill="none" stroke="#4e86ad" d="M388.227,-135.698C388.783,-116.177 386.303,-89.617 371.688,-72 348.356,-43.8758 309.01,-30.6695 276.608,-24.4713"/>
<ellipse fill="none" stroke="#4e86ad" cx="388.014" cy="-139.855" rx="4" ry="4"/>
<polygon fill="#4e86ad" stroke="#4e86ad" points="276.214,-24.4031 267.129,-18.2612 271.287,-23.5491 266.361,-22.6951 266.361,-22.6951 266.361,-22.6951 271.287,-23.5491 265.592,-27.129 276.214,-24.4031 276.214,-24.4031"/>
</g>
<!-- User&#45;&gt;MediaList -->
<g id="edge11" class="edge"><title>User&#45;&gt;MediaList</title>
<path fill="none" stroke="#d8c105" d="M365.764,-140.788C357.562,-132.467 348.013,-122.779 339.53,-114.173"/>
<ellipse fill="none" stroke="#d8c105" cx="368.583" cy="-143.647" rx="4.00002" ry="4.00002"/>
<polygon fill="#d8c105" stroke="#d8c105" points="339.43,-114.072 335.614,-103.791 335.92,-110.511 332.41,-106.95 332.41,-106.95 332.41,-106.95 335.92,-110.511 329.205,-110.109 339.43,-114.072 339.43,-114.072"/>
</g>
<!-- User&#45;&gt;Provider -->
<g id="edge13" class="edge"><title>User&#45;&gt;Provider</title>
<path fill="none" stroke="#82e397" d="M406.782,-141.046C415.809,-132.507 426.397,-122.492 435.719,-113.673"/>
<ellipse fill="none" stroke="#82e397" cx="403.569" cy="-144.086" rx="4.00002" ry="4.00002"/>
<polygon fill="#82e397" stroke="#82e397" points="435.925,-113.478 446.282,-109.875 439.558,-110.042 443.19,-106.606 443.19,-106.606 443.19,-106.606 439.558,-110.042 440.098,-103.337 435.925,-113.478 435.925,-113.478"/>
</g>
</g>
</svg>
