<?xml version="1.0" encoding="UTF-8" standalone="no"?>
<!DOCTYPE svg PUBLIC "-//W3C//DTD SVG 1.1//EN"
 "http://www.w3.org/Graphics/SVG/1.1/DTD/svg11.dtd">
<!-- Generated by graphviz version 2.38.0 (20140413.2041)
 -->
<!-- Title: models_diagram Pages: 1 -->
<svg width="464pt" height="297pt"
 viewBox="0.00 0.00 463.82 297.00" xmlns="http://www.w3.org/2000/svg" xmlns:xlink="http://www.w3.org/1999/xlink">
<g id="graph0" class="graph" transform="scale(1 1) rotate(0) translate(4 293)">
<title>models_diagram</title>
<polygon fill="white" stroke="none" points="-4,4 -4,-293 459.816,-293 459.816,4 -4,4"/>
<!-- _diagram_info -->
<g id="node1" class="node"><title>_diagram_info</title>
<text text-anchor="start" x="8" y="-274.6" font-family="Times,serif" font-size="13.00">Models diagram</text>
<text text-anchor="start" x="8" y="-261.6" font-family="Times,serif" font-size="13.00">Date: Dec 08 2014 &#45; 13:43</text>
<text text-anchor="start" x="8" y="-248.6" font-family="Times,serif" font-size="13.00">Migration version: 20141208120858</text>
<text text-anchor="start" x="8" y="-235.6" font-family="Times,serif" font-size="13.00">Generated by RailRoady 1.2.0</text>
<text text-anchor="start" x="8" y="-222.6" font-family="Times,serif" font-size="13.00">http://railroady.prestonlee.com</text>
</g>
<!-- Comment -->
<g id="node2" class="node"><title>Comment</title>
<ellipse fill="none" stroke="black" cx="284.688" cy="-18" rx="44.9768" ry="18"/>
<text text-anchor="middle" x="284.688" y="-13.8" font-family="Times,serif" font-size="14.00">Comment</text>
</g>
<!-- Journalist -->
<g id="node3" class="node"><title>Journalist</title>
<ellipse fill="none" stroke="black" cx="269.688" cy="-252.5" rx="44.4923" ry="18"/>
<text text-anchor="middle" x="269.688" y="-248.3" font-family="Times,serif" font-size="14.00">Journalist</text>
</g>
<!-- Journalist&#45;&gt;Comment -->
<g id="edge6" class="edge"><title>Journalist&#45;&gt;Comment</title>
<path fill="none" stroke="#878faa" d="M243.306,-230.685C203.528,-196.701 136.404,-127.521 171.688,-72 185.671,-49.997 211.469,-36.9693 234.889,-29.3405"/>
<ellipse fill="none" stroke="#878faa" cx="246.845" cy="-233.651" rx="4.00002" ry="4.00002"/>
<polygon fill="#878faa" stroke="#878faa" points="235.159,-29.2597 246.029,-30.702 239.949,-27.8254 244.739,-26.3911 244.739,-26.3911 244.739,-26.3911 239.949,-27.8254 243.448,-22.0802 235.159,-29.2597 235.159,-29.2597"/>
</g>
<!-- MediaList -->
<g id="node4" class="node"><title>MediaList</title>
<ellipse fill="none" stroke="black" cx="226.688" cy="-90" rx="46.4132" ry="18"/>
<text text-anchor="middle" x="226.688" y="-85.8" font-family="Times,serif" font-size="14.00">MediaList</text>
</g>
<!-- Journalist&#45;&gt;MediaList -->
<g id="edge1" class="edge"><title>Journalist&#45;&gt;MediaList</title>
<path fill="none" stroke="#e1bad3" d="M247.704,-229.056C238.678,-215.41 229.529,-197.325 224.688,-180 219.031,-159.755 217.403,-135.982 218.461,-118.101"/>
<ellipse fill="none" stroke="#e1bad3" cx="250.098" cy="-232.482" rx="4.00002" ry="4.00002"/>
<polygon fill="#e1bad3" stroke="#e1bad3" points="218.469,-118.024 223.899,-108.497 218.944,-113.047 219.419,-108.07 219.419,-108.07 219.419,-108.07 218.944,-113.047 214.94,-107.642 218.469,-118.024 218.469,-118.024"/>
</g>
<!-- Position -->
<g id="node5" class="node"><title>Position</title>
<ellipse fill="none" stroke="black" cx="330.688" cy="-90" rx="39.206" ry="18"/>
<text text-anchor="middle" x="330.688" y="-85.8" font-family="Times,serif" font-size="14.00">Position</text>
</g>
<!-- Journalist&#45;&gt;Position -->
<g id="edge4" class="edge"><title>Journalist&#45;&gt;Position</title>
<path fill="none" stroke="#4d1c98" d="M283.111,-227.724C290.454,-214.058 299.325,-196.398 305.688,-180 313.599,-159.612 320.171,-135.714 324.588,-117.818"/>
<ellipse fill="none" stroke="#4d1c98" cx="281.129" cy="-231.36" rx="4.00002" ry="4.00002"/>
<polygon fill="#4d1c98" stroke="#4d1c98" points="324.599,-117.771 331.309,-109.097 325.767,-112.909 326.934,-108.047 326.934,-108.047 326.934,-108.047 325.767,-112.909 322.558,-106.996 324.599,-117.771 324.599,-117.771"/>
</g>
<!-- Publisher -->
<g id="node6" class="node"><title>Publisher</title>
<ellipse fill="none" stroke="black" cx="396.688" cy="-162" rx="43.5319" ry="18"/>
<text text-anchor="middle" x="396.688" y="-157.8" font-family="Times,serif" font-size="14.00">Publisher</text>
</g>
<!-- Journalist&#45;&gt;Publisher -->
<g id="edge5" class="edge"><title>Journalist&#45;&gt;Publisher</title>
<path fill="none" stroke="#31f3af" d="M299.71,-230.579C320.1,-216.37 346.94,-197.667 367.213,-183.539"/>
<polygon fill="#31f3af" stroke="#31f3af" points="299.436,-230.77 288.659,-232.795 295.334,-233.629 291.232,-236.487 291.232,-236.487 291.232,-236.487 295.334,-233.629 293.804,-240.179 299.436,-230.77 299.436,-230.77"/>
<polygon fill="#31f3af" stroke="#31f3af" points="367.258,-183.508 378.035,-181.483 371.36,-180.65 375.462,-177.791 375.462,-177.791 375.462,-177.791 371.36,-180.65 372.889,-174.099 367.258,-183.508 367.258,-183.508"/>
</g>
<!-- Story -->
<g id="node7" class="node"><title>Story</title>
<ellipse fill="none" stroke="black" cx="416.688" cy="-90" rx="29.0429" ry="18"/>
<text text-anchor="middle" x="416.688" y="-85.8" font-family="Times,serif" font-size="14.00">Story</text>
</g>
<!-- Journalist&#45;&gt;Story -->
<g id="edge3" class="edge"><title>Journalist&#45;&gt;Story</title>
<path fill="none" stroke="#c56a89" d="M320.693,-246.586C363.121,-239.502 421.036,-222.211 449.688,-180 463.412,-159.781 450.164,-133.123 436.586,-114.27"/>
<ellipse fill="none" stroke="#c56a89" cx="316.647" cy="-247.216" rx="4.00001" ry="4.00001"/>
<polygon fill="#c56a89" stroke="#c56a89" points="436.496,-114.152 433.995,-103.475 433.458,-110.18 430.42,-106.208 430.42,-106.208 430.42,-106.208 433.458,-110.18 426.846,-108.942 436.496,-114.152 436.496,-114.152"/>
</g>
<!-- User -->
<g id="node8" class="node"><title>User</title>
<ellipse fill="none" stroke="black" cx="269.688" cy="-162" rx="27" ry="18"/>
<text text-anchor="middle" x="269.688" y="-157.8" font-family="Times,serif" font-size="14.00">User</text>
</g>
<!-- Journalist&#45;&gt;User -->
<g id="edge2" class="edge"><title>Journalist&#45;&gt;User</title>
<path fill="none" stroke="#a033e0" d="M269.688,-224.092C269.688,-213.289 269.688,-200.912 269.688,-190.136"/>
<polygon fill="#a033e0" stroke="#a033e0" points="269.688,-224.436 265.188,-234.436 269.688,-229.436 269.688,-234.436 269.688,-234.436 269.688,-234.436 269.688,-229.436 274.188,-234.436 269.688,-224.436 269.688,-224.436"/>
<polygon fill="#a033e0" stroke="#a033e0" points="269.688,-190.011 274.188,-180.011 269.688,-185.011 269.688,-180.011 269.688,-180.011 269.688,-180.011 269.688,-185.011 265.188,-180.011 269.688,-190.011 269.688,-190.011"/>
</g>
<!-- MediaList&#45;&gt;Journalist -->
<g id="edge7" class="edge"><title>MediaList&#45;&gt;Journalist</title>
<path fill="none" stroke="#0955b5" d="M233.625,-116.358C235.301,-134.416 236.845,-159.09 242.688,-180 247.069,-195.679 254.978,-211.98 261.407,-225.051"/>
<ellipse fill="none" stroke="#0955b5" cx="233.182" cy="-112.049" rx="4" ry="4"/>
<polygon fill="#0955b5" stroke="#0955b5" points="261.562,-225.368 261.909,-236.328 263.757,-229.86 265.952,-234.353 265.952,-234.353 265.952,-234.353 263.757,-229.86 269.995,-232.377 261.562,-225.368 261.562,-225.368"/>
</g>
<!-- Publisher&#45;&gt;Position -->
<g id="edge9" class="edge"><title>Publisher&#45;&gt;Position</title>
<path fill="none" stroke="#90a40d" d="M375.881,-138.932C368.594,-131.204 360.385,-122.498 352.983,-114.646"/>
<ellipse fill="none" stroke="#90a40d" cx="378.636" cy="-141.854" rx="4.00002" ry="4.00002"/>
<polygon fill="#90a40d" stroke="#90a40d" points="352.773,-114.423 349.187,-104.06 349.342,-110.785 345.912,-107.147 345.912,-107.147 345.912,-107.147 349.342,-110.785 342.638,-110.234 352.773,-114.423 352.773,-114.423"/>
</g>
<!-- Publisher&#45;&gt;Story -->
<g id="edge8" class="edge"><title>Publisher&#45;&gt;Story</title>
<path fill="none" stroke="#0ceda5" d="M403.789,-136.146C405.509,-130.124 407.355,-123.664 409.097,-117.566"/>
<ellipse fill="none" stroke="#0ceda5" cx="402.628" cy="-140.209" rx="4.00001" ry="4.00001"/>
<polygon fill="#0ceda5" stroke="#0ceda5" points="409.144,-117.404 416.218,-109.025 410.517,-112.597 411.891,-107.789 411.891,-107.789 411.891,-107.789 410.517,-112.597 407.564,-106.553 409.144,-117.404 409.144,-117.404"/>
</g>
<!-- Story&#45;&gt;Comment -->
<g id="edge10" class="edge"><title>Story&#45;&gt;Comment</title>
<path fill="none" stroke="#248784" d="M388.058,-73.8173C368.017,-63.1895 341.119,-48.9257 319.785,-37.6123"/>
<ellipse fill="none" stroke="#248784" cx="391.652" cy="-75.7235" rx="4.00002" ry="4.00002"/>
<polygon fill="#248784" stroke="#248784" points="319.555,-37.49 312.828,-28.8293 315.137,-35.1475 310.72,-32.8049 310.72,-32.8049 310.72,-32.8049 315.137,-35.1475 308.612,-36.7805 319.555,-37.49 319.555,-37.49"/>
</g>
<!-- User&#45;&gt;MediaList -->
<g id="edge11" class="edge"><title>User&#45;&gt;MediaList</title>
<path fill="none" stroke="#012c5c" d="M255.695,-138.221C251.416,-131.255 246.684,-123.551 242.304,-116.422"/>
<ellipse fill="none" stroke="#012c5c" cx="257.837" cy="-141.708" rx="4.00002" ry="4.00002"/>
<polygon fill="#012c5c" stroke="#012c5c" points="242.24,-116.318 240.84,-105.442 239.623,-112.058 237.006,-107.797 237.006,-107.797 237.006,-107.797 239.623,-112.058 233.172,-110.153 242.24,-116.318 242.24,-116.318"/>
</g>
</g>
</svg>
