<?xml version="1.0" encoding="UTF-8" standalone="no"?>
<!DOCTYPE svg PUBLIC "-//W3C//DTD SVG 1.1//EN"
 "http://www.w3.org/Graphics/SVG/1.1/DTD/svg11.dtd">
<!-- Generated by graphviz version 2.38.0 (20140413.2041)
 -->
<!-- Title: models_diagram Pages: 1 -->
<svg width="657pt" height="814pt"
 viewBox="0.00 0.00 657.26 814.00" xmlns="http://www.w3.org/2000/svg" xmlns:xlink="http://www.w3.org/1999/xlink">
<g id="graph0" class="graph" transform="scale(1 1) rotate(0) translate(4 810)">
<title>models_diagram</title>
<polygon fill="white" stroke="none" points="-4,4 -4,-810 653.255,-810 653.255,4 -4,4"/>
<!-- _diagram_info -->
<g id="node1" class="node"><title>_diagram_info</title>
<text text-anchor="start" x="8" y="-756.6" font-family="Times,serif" font-size="13.00">Models diagram</text>
<text text-anchor="start" x="8" y="-743.6" font-family="Times,serif" font-size="13.00">Date: Dec 08 2014 &#45; 13:43</text>
<text text-anchor="start" x="8" y="-730.6" font-family="Times,serif" font-size="13.00">Migration version: 20141208120858</text>
<text text-anchor="start" x="8" y="-717.6" font-family="Times,serif" font-size="13.00">Generated by RailRoady 1.2.0</text>
<text text-anchor="start" x="8" y="-704.6" font-family="Times,serif" font-size="13.00">http://railroady.prestonlee.com</text>
</g>
<!-- Comment -->
<g id="node2" class="node"><title>Comment</title>
<path fill="none" stroke="black" d="M272.789,-0.5C272.789,-0.5 410.586,-0.5 410.586,-0.5 416.586,-0.5 422.586,-6.5 422.586,-12.5 422.586,-12.5 422.586,-116.5 422.586,-116.5 422.586,-122.5 416.586,-128.5 410.586,-128.5 410.586,-128.5 272.789,-128.5 272.789,-128.5 266.789,-128.5 260.789,-122.5 260.789,-116.5 260.789,-116.5 260.789,-12.5 260.789,-12.5 260.789,-6.5 266.789,-0.5 272.789,-0.5"/>
<text text-anchor="middle" x="341.688" y="-113.3" font-family="Times,serif" font-size="14.00">Comment</text>
<polyline fill="none" stroke="black" points="260.789,-106.5 422.586,-106.5 "/>
<text text-anchor="start" x="268.789" y="-91.3" font-family="Times,serif" font-size="14.00">id :integer</text>
<text text-anchor="start" x="268.789" y="-77.3" font-family="Times,serif" font-size="14.00">content :text</text>
<text text-anchor="start" x="268.789" y="-63.3" font-family="Times,serif" font-size="14.00">commentable_id :integer</text>
<text text-anchor="start" x="268.789" y="-49.3" font-family="Times,serif" font-size="14.00">commentable_type :string</text>
<text text-anchor="start" x="268.789" y="-35.3" font-family="Times,serif" font-size="14.00">created_at :datetime</text>
<text text-anchor="start" x="268.789" y="-21.3" font-family="Times,serif" font-size="14.00">updated_at :datetime</text>
<text text-anchor="start" x="268.789" y="-7.3" font-family="Times,serif" font-size="14.00">user_id :integer</text>
</g>
<!-- Journalist -->
<g id="node3" class="node"><title>Journalist</title>
<path fill="none" stroke="black" d="M237.182,-663.5C237.182,-663.5 346.193,-663.5 346.193,-663.5 352.193,-663.5 358.193,-669.5 358.193,-675.5 358.193,-675.5 358.193,-793.5 358.193,-793.5 358.193,-799.5 352.193,-805.5 346.193,-805.5 346.193,-805.5 237.182,-805.5 237.182,-805.5 231.182,-805.5 225.182,-799.5 225.182,-793.5 225.182,-793.5 225.182,-675.5 225.182,-675.5 225.182,-669.5 231.182,-663.5 237.182,-663.5"/>
<text text-anchor="middle" x="291.688" y="-790.3" font-family="Times,serif" font-size="14.00">Journalist</text>
<polyline fill="none" stroke="black" points="225.182,-783.5 358.193,-783.5 "/>
<text text-anchor="start" x="233.182" y="-768.3" font-family="Times,serif" font-size="14.00">id :integer</text>
<text text-anchor="start" x="233.182" y="-754.3" font-family="Times,serif" font-size="14.00">first_name :string</text>
<text text-anchor="start" x="233.182" y="-740.3" font-family="Times,serif" font-size="14.00">last_name :string</text>
<text text-anchor="start" x="233.182" y="-726.3" font-family="Times,serif" font-size="14.00">title :string</text>
<text text-anchor="start" x="233.182" y="-712.3" font-family="Times,serif" font-size="14.00">created_at :datetime</text>
<text text-anchor="start" x="233.182" y="-698.3" font-family="Times,serif" font-size="14.00">updated_at :datetime</text>
<text text-anchor="start" x="233.182" y="-684.3" font-family="Times,serif" font-size="14.00">media_outlet :string</text>
<text text-anchor="start" x="233.182" y="-670.3" font-family="Times,serif" font-size="14.00">twitter :string</text>
</g>
<!-- Journalist&#45;&gt;Comment -->
<g id="edge6" class="edge"><title>Journalist&#45;&gt;Comment</title>
<path fill="none" stroke="#c7febd" d="M218.485,-664.332C217.885,-663.884 217.286,-663.44 216.688,-663 190.383,-643.682 170.495,-654.349 152.688,-627 40.4418,-454.612 13.6042,-338.139 124.688,-165 152.582,-121.524 204.75,-96.7965 250.945,-82.8672"/>
<ellipse fill="none" stroke="#c7febd" cx="221.733" cy="-666.834" rx="4.00002" ry="4.00002"/>
<polygon fill="#c7febd" stroke="#c7febd" points="251.092,-82.8249 261.947,-84.3799 255.896,-81.4404 260.701,-80.0559 260.701,-80.0559 260.701,-80.0559 255.896,-81.4404 259.455,-75.7319 251.092,-82.8249 251.092,-82.8249"/>
</g>
<!-- MediaList -->
<g id="node4" class="node"><title>MediaList</title>
<path fill="none" stroke="black" d="M145.448,-193.5C145.448,-193.5 259.927,-193.5 259.927,-193.5 265.927,-193.5 271.927,-199.5 271.927,-205.5 271.927,-205.5 271.927,-295.5 271.927,-295.5 271.927,-301.5 265.927,-307.5 259.927,-307.5 259.927,-307.5 145.448,-307.5 145.448,-307.5 139.448,-307.5 133.448,-301.5 133.448,-295.5 133.448,-295.5 133.448,-205.5 133.448,-205.5 133.448,-199.5 139.448,-193.5 145.448,-193.5"/>
<text text-anchor="middle" x="202.688" y="-292.3" font-family="Times,serif" font-size="14.00">MediaList</text>
<polyline fill="none" stroke="black" points="133.448,-285.5 271.927,-285.5 "/>
<text text-anchor="start" x="141.448" y="-270.3" font-family="Times,serif" font-size="14.00">id :integer</text>
<text text-anchor="start" x="141.448" y="-256.3" font-family="Times,serif" font-size="14.00">name :string</text>
<text text-anchor="start" x="141.448" y="-242.3" font-family="Times,serif" font-size="14.00">user_id :integer</text>
<text text-anchor="start" x="141.448" y="-228.3" font-family="Times,serif" font-size="14.00">journalist_ids :integer</text>
<text text-anchor="start" x="141.448" y="-214.3" font-family="Times,serif" font-size="14.00">created_at :datetime</text>
<text text-anchor="start" x="141.448" y="-200.3" font-family="Times,serif" font-size="14.00">updated_at :datetime</text>
</g>
<!-- Journalist&#45;&gt;MediaList -->
<g id="edge1" class="edge"><title>Journalist&#45;&gt;MediaList</title>
<path fill="none" stroke="#9744b0" d="M218.907,-672.523C194.12,-649.668 172.427,-628.734 171.688,-627 128.458,-525.613 151.794,-394.693 175.292,-317.254"/>
<ellipse fill="none" stroke="#9744b0" cx="221.974" cy="-675.342" rx="4.00002" ry="4.00002"/>
<polygon fill="#9744b0" stroke="#9744b0" points="175.321,-317.162 182.598,-308.959 176.812,-312.39 178.303,-307.617 178.303,-307.617 178.303,-307.617 176.812,-312.39 174.008,-306.275 175.321,-317.162 175.321,-317.162"/>
</g>
<!-- Position -->
<g id="node5" class="node"><title>Position</title>
<path fill="none" stroke="black" d="M367.172,-193.5C367.172,-193.5 476.203,-193.5 476.203,-193.5 482.203,-193.5 488.203,-199.5 488.203,-205.5 488.203,-205.5 488.203,-295.5 488.203,-295.5 488.203,-301.5 482.203,-307.5 476.203,-307.5 476.203,-307.5 367.172,-307.5 367.172,-307.5 361.172,-307.5 355.172,-301.5 355.172,-295.5 355.172,-295.5 355.172,-205.5 355.172,-205.5 355.172,-199.5 361.172,-193.5 367.172,-193.5"/>
<text text-anchor="middle" x="421.688" y="-292.3" font-family="Times,serif" font-size="14.00">Position</text>
<polyline fill="none" stroke="black" points="355.172,-285.5 488.203,-285.5 "/>
<text text-anchor="start" x="363.172" y="-270.3" font-family="Times,serif" font-size="14.00">id :integer</text>
<text text-anchor="start" x="363.172" y="-256.3" font-family="Times,serif" font-size="14.00">title :string</text>
<text text-anchor="start" x="363.172" y="-242.3" font-family="Times,serif" font-size="14.00">publisher_id :integer</text>
<text text-anchor="start" x="363.172" y="-228.3" font-family="Times,serif" font-size="14.00">journalist_id :integer</text>
<text text-anchor="start" x="363.172" y="-214.3" font-family="Times,serif" font-size="14.00">created_at :datetime</text>
<text text-anchor="start" x="363.172" y="-200.3" font-family="Times,serif" font-size="14.00">updated_at :datetime</text>
</g>
<!-- Journalist&#45;&gt;Position -->
<g id="edge4" class="edge"><title>Journalist&#45;&gt;Position</title>
<path fill="none" stroke="#b2f410" d="M364.421,-679.199C379.684,-664.077 393.826,-646.409 402.688,-627 448.418,-526.843 442.134,-395.652 432.526,-317.805"/>
<ellipse fill="none" stroke="#b2f410" cx="361.178" cy="-682.314" rx="4.00002" ry="4.00002"/>
<polygon fill="#b2f410" stroke="#b2f410" points="432.496,-317.568 435.68,-307.074 431.856,-312.609 431.217,-307.65 431.217,-307.65 431.217,-307.65 431.856,-312.609 426.754,-308.226 432.496,-317.568 432.496,-317.568"/>
</g>
<!-- Publisher -->
<g id="node6" class="node"><title>Publisher</title>
<path fill="none" stroke="black" d="M462.182,-456.5C462.182,-456.5 571.193,-456.5 571.193,-456.5 577.193,-456.5 583.193,-462.5 583.193,-468.5 583.193,-468.5 583.193,-530.5 583.193,-530.5 583.193,-536.5 577.193,-542.5 571.193,-542.5 571.193,-542.5 462.182,-542.5 462.182,-542.5 456.182,-542.5 450.182,-536.5 450.182,-530.5 450.182,-530.5 450.182,-468.5 450.182,-468.5 450.182,-462.5 456.182,-456.5 462.182,-456.5"/>
<text text-anchor="middle" x="516.688" y="-527.3" font-family="Times,serif" font-size="14.00">Publisher</text>
<polyline fill="none" stroke="black" points="450.182,-520.5 583.193,-520.5 "/>
<text text-anchor="start" x="458.182" y="-505.3" font-family="Times,serif" font-size="14.00">id :integer</text>
<text text-anchor="start" x="458.182" y="-491.3" font-family="Times,serif" font-size="14.00">name :string</text>
<text text-anchor="start" x="458.182" y="-477.3" font-family="Times,serif" font-size="14.00">created_at :datetime</text>
<text text-anchor="start" x="458.182" y="-463.3" font-family="Times,serif" font-size="14.00">updated_at :datetime</text>
</g>
<!-- Journalist&#45;&gt;Publisher -->
<g id="edge5" class="edge"><title>Journalist&#45;&gt;Publisher</title>
<path fill="none" stroke="#048191" d="M366.779,-685.86C390.342,-668.922 415.457,-648.639 435.688,-627 456.704,-604.52 475.557,-575.885 489.775,-551.546"/>
<polygon fill="#048191" stroke="#048191" points="366.68,-685.93 355.919,-688.037 362.6,-688.82 358.519,-691.709 358.519,-691.709 358.519,-691.709 362.6,-688.82 361.12,-695.382 366.68,-685.93 366.68,-685.93"/>
<polygon fill="#048191" stroke="#048191" points="489.821,-551.466 498.701,-545.033 492.309,-547.129 494.798,-542.793 494.798,-542.793 494.798,-542.793 492.309,-547.129 490.896,-540.553 489.821,-551.466 489.821,-551.466"/>
</g>
<!-- Story -->
<g id="node7" class="node"><title>Story</title>
<path fill="none" stroke="black" d="M518.12,-165.5C518.12,-165.5 637.255,-165.5 637.255,-165.5 643.255,-165.5 649.255,-171.5 649.255,-177.5 649.255,-177.5 649.255,-323.5 649.255,-323.5 649.255,-329.5 643.255,-335.5 637.255,-335.5 637.255,-335.5 518.12,-335.5 518.12,-335.5 512.12,-335.5 506.12,-329.5 506.12,-323.5 506.12,-323.5 506.12,-177.5 506.12,-177.5 506.12,-171.5 512.12,-165.5 518.12,-165.5"/>
<text text-anchor="middle" x="577.688" y="-320.3" font-family="Times,serif" font-size="14.00">Story</text>
<polyline fill="none" stroke="black" points="506.12,-313.5 649.255,-313.5 "/>
<text text-anchor="start" x="514.12" y="-298.3" font-family="Times,serif" font-size="14.00">id :integer</text>
<text text-anchor="start" x="514.12" y="-284.3" font-family="Times,serif" font-size="14.00">headline :text</text>
<text text-anchor="start" x="514.12" y="-270.3" font-family="Times,serif" font-size="14.00">summary :text</text>
<text text-anchor="start" x="514.12" y="-256.3" font-family="Times,serif" font-size="14.00">date_published :date</text>
<text text-anchor="start" x="514.12" y="-242.3" font-family="Times,serif" font-size="14.00">journalist_id :integer</text>
<text text-anchor="start" x="514.12" y="-228.3" font-family="Times,serif" font-size="14.00">created_at :datetime</text>
<text text-anchor="start" x="514.12" y="-214.3" font-family="Times,serif" font-size="14.00">updated_at :datetime</text>
<text text-anchor="start" x="514.12" y="-200.3" font-family="Times,serif" font-size="14.00">link :string</text>
<text text-anchor="start" x="514.12" y="-186.3" font-family="Times,serif" font-size="14.00">publisher_id :integer</text>
<text text-anchor="start" x="514.12" y="-172.3" font-family="Times,serif" font-size="14.00">published_at :datetime</text>
</g>
<!-- Journalist&#45;&gt;Story -->
<g id="edge3" class="edge"><title>Journalist&#45;&gt;Story</title>
<path fill="none" stroke="#cdb5bf" d="M366.511,-730.231C437.866,-722.657 541.773,-699.022 592.688,-627 650.321,-545.473 633.692,-427.238 610.989,-345.312"/>
<ellipse fill="none" stroke="#cdb5bf" cx="362.392" cy="-730.641" rx="4" ry="4"/>
<polygon fill="#cdb5bf" stroke="#cdb5bf" points="610.935,-345.124 612.523,-334.273 609.565,-340.315 608.195,-335.506 608.195,-335.506 608.195,-335.506 609.565,-340.315 603.867,-336.74 610.935,-345.124 610.935,-345.124"/>
</g>
<!-- User -->
<g id="node8" class="node"><title>User</title>
<path fill="none" stroke="black" d="M201.41,-372.5C201.41,-372.5 381.966,-372.5 381.966,-372.5 387.966,-372.5 393.966,-378.5 393.966,-384.5 393.966,-384.5 393.966,-614.5 393.966,-614.5 393.966,-620.5 387.966,-626.5 381.966,-626.5 381.966,-626.5 201.41,-626.5 201.41,-626.5 195.41,-626.5 189.41,-620.5 189.41,-614.5 189.41,-614.5 189.41,-384.5 189.41,-384.5 189.41,-378.5 195.41,-372.5 201.41,-372.5"/>
<text text-anchor="middle" x="291.688" y="-611.3" font-family="Times,serif" font-size="14.00">User</text>
<polyline fill="none" stroke="black" points="189.41,-604.5 393.966,-604.5 "/>
<text text-anchor="start" x="197.41" y="-589.3" font-family="Times,serif" font-size="14.00">id :integer</text>
<text text-anchor="start" x="197.41" y="-575.3" font-family="Times,serif" font-size="14.00">email :string</text>
<text text-anchor="start" x="197.41" y="-561.3" font-family="Times,serif" font-size="14.00">encrypted_password :string</text>
<text text-anchor="start" x="197.41" y="-547.3" font-family="Times,serif" font-size="14.00">reset_password_token :string</text>
<text text-anchor="start" x="197.41" y="-533.3" font-family="Times,serif" font-size="14.00">reset_password_sent_at :datetime</text>
<text text-anchor="start" x="197.41" y="-519.3" font-family="Times,serif" font-size="14.00">remember_created_at :datetime</text>
<text text-anchor="start" x="197.41" y="-505.3" font-family="Times,serif" font-size="14.00">sign_in_count :integer</text>
<text text-anchor="start" x="197.41" y="-491.3" font-family="Times,serif" font-size="14.00">current_sign_in_at :datetime</text>
<text text-anchor="start" x="197.41" y="-477.3" font-family="Times,serif" font-size="14.00">last_sign_in_at :datetime</text>
<text text-anchor="start" x="197.41" y="-463.3" font-family="Times,serif" font-size="14.00">current_sign_in_ip :string</text>
<text text-anchor="start" x="197.41" y="-449.3" font-family="Times,serif" font-size="14.00">last_sign_in_ip :string</text>
<text text-anchor="start" x="197.41" y="-435.3" font-family="Times,serif" font-size="14.00">first_name :string</text>
<text text-anchor="start" x="197.41" y="-421.3" font-family="Times,serif" font-size="14.00">last_name :string</text>
<text text-anchor="start" x="197.41" y="-407.3" font-family="Times,serif" font-size="14.00">username :string</text>
<text text-anchor="start" x="197.41" y="-393.3" font-family="Times,serif" font-size="14.00">created_at :datetime</text>
<text text-anchor="start" x="197.41" y="-379.3" font-family="Times,serif" font-size="14.00">updated_at :datetime</text>
</g>
<!-- Journalist&#45;&gt;User -->
<g id="edge2" class="edge"><title>Journalist&#45;&gt;User</title>
<path fill="none" stroke="#c8365d" d="M291.688,-652.996C291.688,-647.782 291.688,-642.462 291.688,-637.082"/>
<polygon fill="#c8365d" stroke="#c8365d" points="291.688,-653.276 287.188,-663.276 291.688,-658.276 291.688,-663.276 291.688,-663.276 291.688,-663.276 291.688,-658.276 296.188,-663.276 291.688,-653.276 291.688,-653.276"/>
<polygon fill="#c8365d" stroke="#c8365d" points="291.688,-636.677 296.188,-626.677 291.688,-631.677 291.688,-626.677 291.688,-626.677 291.688,-626.677 291.688,-631.677 287.188,-626.677 291.688,-636.677 291.688,-636.677"/>
</g>
<!-- MediaList&#45;&gt;Journalist -->
<g id="edge7" class="edge"><title>MediaList&#45;&gt;Journalist</title>
<path fill="none" stroke="#72798f" d="M188.469,-315.84C170.082,-393.092 146.194,-524.993 189.688,-627 190.241,-628.298 202.537,-640.356 218.435,-655.925"/>
<ellipse fill="none" stroke="#72798f" cx="189.515" cy="-311.506" rx="4.00001" ry="4.00001"/>
<polygon fill="#72798f" stroke="#72798f" points="218.819,-656.302 222.814,-666.514 222.391,-659.8 225.963,-663.299 225.963,-663.299 225.963,-663.299 222.391,-659.8 229.112,-660.084 218.819,-656.302 218.819,-656.302"/>
</g>
<!-- Publisher&#45;&gt;Position -->
<g id="edge9" class="edge"><title>Publisher&#45;&gt;Position</title>
<path fill="none" stroke="#587cad" d="M497.518,-448.659C482.978,-410.853 462.855,-358.536 446.993,-317.294"/>
<ellipse fill="none" stroke="#587cad" cx="499.029" cy="-452.586" rx="4.00001" ry="4.00001"/>
<polygon fill="#587cad" stroke="#587cad" points="446.958,-317.203 447.569,-306.254 445.163,-312.537 443.368,-307.87 443.368,-307.87 443.368,-307.87 445.163,-312.537 439.168,-309.485 446.958,-317.203 446.958,-317.203"/>
</g>
<!-- Publisher&#45;&gt;Story -->
<g id="edge8" class="edge"><title>Publisher&#45;&gt;Story</title>
<path fill="none" stroke="#7aa563" d="M529.075,-448.34C536.37,-418.801 545.833,-380.485 554.469,-345.518"/>
<ellipse fill="none" stroke="#7aa563" cx="528.064" cy="-452.437" rx="4.00001" ry="4.00001"/>
<polygon fill="#7aa563" stroke="#7aa563" points="554.482,-345.463 561.249,-336.833 555.681,-340.608 556.88,-335.754 556.88,-335.754 556.88,-335.754 555.681,-340.608 552.511,-334.675 554.482,-345.463 554.482,-345.463"/>
</g>
<!-- Story&#45;&gt;Comment -->
<g id="edge10" class="edge"><title>Story&#45;&gt;Comment</title>
<path fill="none" stroke="#779ca4" d="M499.791,-166.753C499.09,-166.163 498.389,-165.579 497.688,-165 477.261,-148.133 453.807,-131.807 431.396,-117.425"/>
<ellipse fill="none" stroke="#779ca4" cx="503.063" cy="-169.582" rx="4.00002" ry="4.00002"/>
<polygon fill="#779ca4" stroke="#779ca4" points="431.309,-117.37 425.277,-108.212 427.087,-114.691 422.866,-112.011 422.866,-112.011 422.866,-112.011 427.087,-114.691 420.454,-115.811 431.309,-117.37 431.309,-117.37"/>
</g>
<!-- User&#45;&gt;MediaList -->
<g id="edge11" class="edge"><title>User&#45;&gt;MediaList</title>
<path fill="none" stroke="#70d96b" d="M243.497,-364.756C237.56,-348.28 231.711,-332.049 226.378,-317.246"/>
<ellipse fill="none" stroke="#70d96b" cx="244.919" cy="-368.704" rx="4.00001" ry="4.00001"/>
<polygon fill="#70d96b" stroke="#70d96b" points="226.341,-317.145 227.185,-306.212 224.646,-312.441 222.951,-307.737 222.951,-307.737 222.951,-307.737 224.646,-312.441 218.718,-309.262 226.341,-317.145 226.341,-317.145"/>
</g>
</g>
</svg>
